/* XPM */
static char *bigger[] = {
/* columns rows colors chars-per-pixel */
"29 32 115 2",
"   c black",
".  c #000800",
"X  c #396A00",
"o  c #5E5700",
"O  c #496200",
"+  c #645500",
"@  c #665C00",
"#  c #695200",
"$  c #695300",
"%  c #6B5400",
"&  c #6D5600",
"*  c #704E00",
"=  c #656F00",
"-  c #6A6700",
";  c #777900",
":  c #008700",
">  c #008800",
",  c #008900",
"<  c #008A00",
"1  c #008B00",
"2  c #008C00",
"3  c #008D00",
"4  c #008E00",
"5  c #008F00",
"6  c #009000",
"7  c #009100",
"8  c #009200",
"9  c #009400",
"0  c #009500",
"q  c #009600",
"w  c #009800",
"e  c #009900",
"r  c #009C00",
"t  c #009F00",
"y  c #129E00",
"u  c #1B9700",
"i  c #00A000",
"p  c #00A100",
"a  c #00A400",
"s  c #00A500",
"d  c #00A600",
"f  c #00A700",
"g  c #00A800",
"h  c #00AD00",
"j  c #00B000",
"k  c #00B100",
"l  c #00B300",
"z  c #00B600",
"x  c #00B700",
"c  c #00BC00",
"v  c #00BD00",
"b  c #00BE00",
"n  c #00C000",
"m  c #00C200",
"M  c #00C800",
"N  c #00CF00",
"B  c #00D000",
"V  c #00D100",
"C  c #00D500",
"Z  c #00D700",
"A  c #00D800",
"S  c #00D900",
"D  c #00DB00",
"F  c #00DF00",
"G  c #0EDC00",
"H  c #13CC00",
"J  c #00E000",
"K  c #00E300",
"L  c #00E500",
"P  c #00E600",
"I  c #00E900",
"U  c #00EA00",
"Y  c #00EB00",
"T  c #00EC00",
"R  c #0FEC00",
"E  c #00F000",
"W  c #00F200",
"Q  c #00F300",
"!  c #00F400",
"~  c #00F500",
"^  c #00F600",
"/  c #00F700",
"(  c #06F500",
")  c #07F400",
"_  c #00F800",
"`  c #00F900",
"'  c #00FA00",
"]  c #00FB00",
"[  c #03F800",
"{  c #00FC00",
"}  c #04F800",
"|  c #09F200",
" . c #0BF000",
".. c #32CB00",
"X. c #5B9700",
"o. c #6A8A00",
"O. c #6A9400",
"+. c #6A9500",
"@. c #758A00",
"#. c #768A00",
"$. c #788700",
"%. c #798700",
"&. c #788800",
"*. c #B92900",
"=. c #854400",
"-. c #DD1700",
";. c #C12500",
":. c #C32400",
">. c #C73000",
",. c #DB2800",
"<. c #D13200",
"1. c #FF0600",
"2. c #FF0700",
"3. c #808000",
"4. c None",
/* pixels */
"4.4.4.4.4.4.4.4.> > 1 1 1 1 1 1 1 1 1 1 1 > > 4.4.4.4.4.4.",
"4.4.4.4.4.4.4.> > i n M M M M M M M M M n r > > 4.4.4.4.4.",
"4.4.4.4.4.4.4.> 1 V / { { { { { { { { { / M 5 > 4.4.4.4.4.",
"4.4.4.4.4.4.> > k T { { { { { { { { { { { P g > > 4.4.4.4.",
"4.4.4.4.4.4.> e D { { { { { { { { { { { { { M 5 > 4.4.4.4.",
"4.4.4.4.4.> > x E { { { { { { { { { { { { { T h 1 > 4.4.4.",
"4.4.4.4.4.> r D { { { { { { { { { { { { { { { C e > > 4.4.",
"4.4.4.4.> 5 n ~ { { { { { { { { { { { { { { { ~ k 1 > 4.4.",
"4.4.4.> > s P { { { { { { { { { { { { { { { { { D e > > 4.",
"4.4.4.> 5 n / { { { { { { { { { { { { { { { { { / b 5 > 4.",
"4.4.> > g P { { { { { { { { { { { { { { { { { { { P i 1 . ",
"4.4.> 1 k / { { { { { { { { { { { { { { { { { { { ~ g > . ",
"4.4.> > i J { { { { { { { { { { { { { { { { { { / V q > . ",
"4.4.4.> 1 z ~ { { { { { { { { { { { { { { { { { ~ g > > 4.",
"4.4.4.> > q V { { { { { { { { { { { { { { { { { V q > > 4.",
"4.4.4.4.> > u X...{ { { { { { { { { { { { { { P s : > 4.4.",
"4.2.2.4.4.> X ;.+.{ { { ( ) { { { { { { { { / b > > 4.4.4.",
"4.2.2.1.4.4.=.:.+.{ {  .&.3.} { { { { { { { J s > 4.4.4.4.",
"4.2.1.1.2.4.*.-.o./ R &.,.&./ { { { { { { / b 1 > 4.4.4.4.",
"4.4.2.2.2.2.1.1.- H &.<.&.) { { { { { { / D r > 4.4.4.4.4.",
"4.4.4.2.1.1.1.1.& = >.; G P T T T T T P P k > > 4.4.4.4.4.",
"4.4.4.4.1.1.4.1.* + @ y h h h h h h h h s 5 > 4.4.4.4.4.4.",
"2.2.2.2.1.1.4.4.: O & $ $ $ $ o > > > > > > > 4.4.4.4.4.4.",
"2.1.1.1.1.1.4.4.4.1.1.1.1.1.1.1.4.4.4.4.4.4.4.4.4.4.4.4.4.",
"1.1.1.1.1.1.4.4.4.4.1.1.1.1.1.4.4.4.4.4.4.4.4.4.4.4.4.4.4.",
"4.4.4.4.1.2.1.1.2.2.2.2.4.4.4.4.4.4.4.4.4.4.4.4.4.4.4.4.4.",
"4.4.4.2.1.1.1.1.2.2.2.2.1.4.4.4.4.4.4.4.4.4.4.4.4.4.4.4.4.",
"4.4.1.2.1.1.1.1.2.4.2.2.2.2.4.4.4.4.4.4.4.4.4.4.4.4.4.4.4.",
"4.2.1.1.1.4.1.1.2.4.4.2.1.1.1.4.4.4.4.4.4.4.4.4.4.4.4.4.4.",
"4.2.1.1.4.4.1.1.2.4.4.4.1.1.1.4.4.4.4.4.4.4.4.4.4.4.4.4.4.",
"4.4.4.4.4.4.1.1.2.4.4.4.4.4.4.4.4.4.4.4.4.4.4.4.4.4.4.4.4.",
"4.4.4.4.4.4.1.1.1.4.4.4.4.4.4.4.4.4.4.4.4.4.4.4.4.4.4.4.4."
};
