/* XPM */
static char *insert_polyline[] = {
/* columns rows colors chars-per-pixel */
"31 34 36 1",
"  c black",
". c #7F7A00",
"X c #008000",
"o c #008500",
"O c #008600",
"+ c #008700",
"@ c #008800",
"# c #008900",
"$ c #008A00",
"% c #008F00",
"& c #009700",
"* c #108000",
"= c #118000",
"- c #00A500",
"; c #00B300",
": c #00C200",
"> c #00D000",
", c #00DF00",
"< c #00ED00",
"1 c #00EE00",
"2 c #00F500",
"3 c #00FC00",
"4 c #40A200",
"5 c #7F8100",
"6 c #7F8200",
"7 c #AB3100",
"8 c #804700",
"9 c #805600",
"0 c #DF1700",
"q c red",
"w c #FF0600",
"e c #FF0700",
"r c #FF0800",
"t c #FF1000",
"y c #808100",
"u c None",
/* pixels */
"uuuuuuuuu@@@@@@@@@@@@@@@uuuuuuu",
"uuuuuuuu@@-:::::::::::-@+uuuuuu",
"uuuuuuuu@@1333333333332&@uuuuuu",
"uuuuuuu+@:3333333333332:@@uuuuu",
"uuuuuuu@&333333333333332%@uuuuu",
"uuuuuu+@>333333333333333>@+uuuu",
"uuuuuu@&33333333333333333-@Xuuu",
"uuuuu@@,33333333333333333,@+uuu",
"uuuu@@;3333333333333333333-@Xuu",
"uuuu@@133333333333333333331@@uu",
"uuu@@;333333333333333333333:@+u",
"uuu@&13333333333333333333332%@u",
"uuu@&23333333333333333333321&@u",
"uuu@%;333333333333333333333;@+u",
"uuuu@@133333333333333333331@@uu",
"uuuuX@-3333333333333333333;@+uu",
"uuuuu+@4y3333333333333333<@+uuu",
"uuuuuX@8r3333333333333332&@uuuu",
"urrruu+8w333366333333333>++uuuu",
"urwwruu7r2336wy333333333&+uuuuu",
"uurwrruww;36wy333333332:@+uuuuu",
"uuurwrrwr&.ry3333333332@@uuuuuu",
"uuuurwrrr*09::::::::::-@+uuuuuu",
"uuuuutuuu@*@@@@@@@@@@@@@uuuuuuu",
"rwrwrwuuuuwrwrwrwuuuuuuuuuuuuuu",
"wwwwwwuuuurwwwwwruuuuuuuuuuuuuu",
"uuuuurruuuwruuuuuuuuuuuuuuuuuuu",
"uuuurwrwwqrrruuuuuuuuuuuuuuuuuu",
"uuurwwuwrurwrruuuuuuuuuuuuuuuuu",
"uurwwuuwwuurwwruuuuuuuuuuuuuuuu",
"urrwuuuwruuurrwuuuuuuuuuuuuuuuu",
"uuruuuuwwuuuurruuuuuuuuuuuuuuuu",
"uuuuuuuwruuuuuuuuuuuuuuuuuuuuuu",
"uuuuuuuuuuuuuuuuuuuuuuuuuuuuuuu"
};
