/* XPM */
static char *insert_polyline[] = {
/* columns rows colors chars-per-pixel */
"32 32 52 1",
"  c black",
". c #207800",
"X c #555D00",
"o c #496200",
"O c #605800",
"+ c #606D00",
"@ c #008000",
"# c #008600",
"$ c #008700",
"% c #008800",
"& c #008900",
"* c #008F00",
"= c #009000",
"- c #009700",
"; c #009D00",
": c #009E00",
"> c #00A500",
", c #00B300",
"< c #00C200",
"1 c #00C900",
"2 c #00D000",
"3 c #00DF00",
"4 c #00E600",
"5 c #00E700",
"6 c #00ED00",
"7 c #00EE00",
"8 c #00F500",
"9 c #00FC00",
"0 c #10EC00",
"q c #10ED00",
"w c #20DD00",
"e c #30CE00",
"r c #40A100",
"t c #40BF00",
"y c #7F8200",
"u c #709000",
"i c #709100",
"p c #60A000",
"a c #BF3600",
"s c #8E4000",
"d c #9F4D00",
"f c #AF5400",
"g c #DF1700",
"h c #DF2600",
"j c #FF0400",
"k c #FF0500",
"l c #FF0600",
"z c #FF0700",
"x c #FF0800",
"c c #FF1000",
"v c #808100",
"b c None",
/* pixels */
"bbbbbbbbbbbbbbbbbbbbbbbbbbbbbbbb",
"bbbbbbbbbbbbbbbbbbbbbbbbbbbbbbbb",
"bbbbbbbbbbbbbbbbbbbbbbbbbbbbbbbb",
"bbbbbbbbbbbbbbbbbbbbbbbbbbbbbbbb",
"bbbbbbbbb&$&&$&&&&$&$&$bbbbbbbbb",
"bbbbbbbb$-999999999999>$bbbbbbbb",
"bbbbbbbb$49999999999993$@bbbbbbb",
"bbbbbbb&,99999999999999>$bbbbbbb",
"bbbbbb$&6999999999999996=@bbbbbb",
"bbbbbb&<9999999999999999<&bbbbbb",
"bbbbb$-699999999999999998*$bbbbb",
"bbbbb&29999999999999999991&bbbbb",
"bbbb$-99999999999999999999;$bbbb",
"bbbb&2999999999999999999993&bbbb",
"bbb$,9999999999999999999999>&bbb",
"bbb$399999999999999999999993&bbb",
"bbb$>9eu9999999999999999999,&bbb",
"bbcb&3ph9999099999999999991&bbbb",
"bzzz$;ph999yh0999999999999-&bbbb",
"bxzzz&+h99yzv9999999999992&bbbbb",
"bbxzzXOh9yzv9999999999996-&bbbbb",
"bbbxzzsdtzv9999999999999<&bbbbbb",
"bbbbzz@=6t99999999999996&$bbbbbb",
"zzzzzzb$>fhhhhu99999999,$bbbbbbb",
"zzzjzzb@&rppppe99999994&bbbbbbbb",
"bbbbzzxjoaw99999999999-$bbbbbbbb",
"bbbxzzxxxzg.&&$&&$&$&$&bbbbbbbbb",
"bbxzzbzxbxzzzbbbbbbbbbbbbbbbbbbb",
"bzzzbbzzbbxzzcbbbbbbbbbbbbbbbbbb",
"bzzbbbjzbbbxzbbbbbbbbbbbbbbbbbbb",
"bbbbbbzzbbbbbbbbbbbbbbbbbbbbbbbb",
"bbbbbbbbbbbbbbbbbbbbbbbbbbbbbbbb"
};
