/* XPM */
static char *insert_polygon[] = {
/* columns rows colors chars-per-pixel */
"32 32 73 1",
"  c black",
". c #2E6F00",
"X c #366900",
"o c #008000",
"O c #048000",
"+ c #058200",
"@ c #068000",
"# c #068300",
"$ c #068301",
"% c #078200",
"& c #078300",
"* c #078301",
"= c #068302",
"- c #078202",
"; c #068400",
": c #078400",
"> c #068402",
", c #068B01",
"< c #088000",
"1 c #088100",
"2 c #088200",
"3 c #088400",
"4 c #069201",
"5 c #059A01",
"6 c #108000",
"7 c #05A201",
"8 c #05AA01",
"9 c #04B101",
"0 c #04B201",
"q c #03BA01",
"w c #03C101",
"e c #04C101",
"r c #03C901",
"t c #02D101",
"y c #03D101",
"u c #02D901",
"i c #11C801",
"p c #12C901",
"a c #01E001",
"s c #02E001",
"d c #01EF01",
"f c #01F001",
"g c #00F701",
"h c #01F701",
"j c #01F801",
"k c #00FF01",
"l c #10EF01",
"z c #30D101",
"x c #50B100",
"c c #7F8300",
"v c #A53300",
"b c #834400",
"n c #834501",
"m c #834600",
"M c #825500",
"N c #816400",
"B c #807401",
"V c #D11F00",
"C c #C92100",
"Z c #CF3500",
"A c #DF2600",
"S c #E01600",
"D c #E01E00",
"F c #EB1100",
"G c #FF0300",
"H c #FF0400",
"J c #FF0500",
"K c #FF0600",
"L c #FF0700",
"P c #FF0800",
"I c #FF1000",
"U c #808300",
"Y c None",
/* pixels */
"YYYYYYYYYYYYYYYYYYYYYYYYYYYYYYYY",
"YYYYYYYYYYYYYYYYYY<**YYYYYYYYYYY",
"YYYYYYYYYYYYYY6*3<,77>YYYYYYYYYY",
"YYYYYYYYYY3.::,7eshkk7>YYYYYYYYY",
"YYYYYYYYY**7rskkkkkkkh5=YYYYYYYY",
"YYYYYYYYY*0kkkkkkkkkkkh5=YYYYYYY",
"YYYYYYYYY*dkkkkkkkkkkkkh5=YYYYYY",
"YYYYYYYY*7kkkkkkkkkkkkkkh4*YYYYY",
"YYYYYYYY*ykkkkkkkkkkkkkkkd4=YYYY",
"YYYYYYY<4kkkkkkkkkkkkkkkkkd4=YYY",
"YYYYYYY:ykkkkkkkkkkkkkkkkkkd4=YY",
"YYYYYY*4kkkkkkkkkkkkkkkkkkkkd43Y",
"YYYYYY:qkkkkkkkkkkkkkkkkkkkkkd43",
"YYYYY<*dkkkkkkkkkkkkkkkkkkkkkh4<",
"YYYYY:0kkkkkkkkkkkkkkkkkkkkkkq:Y",
"YYYYY*dkkkkkkkkkkkkkkkkkkkkkd**Y",
"YYYY*7zxkkkkkkkkkkkkkkkkkkkk9*YY",
"YYYY*sUAkkkkkkkkkkkkkkkkkkks*YYY",
"YLLX4kUAkkkcZlkkkkkkkkkkkkk4<YYY",
"YLLVikUAkkcLBsukkkkkkkkkkky*YYYY",
"YYnSZiND8MLn***9kkkkkkkkkd4<YYYY",
"YY<.LCvFnLLYYYY*0kkkkkkkk9:YYYYY",
"YYYYLLYYYPYYYYYY*0kkkkkkd:<YYYYY",
"LLLLLLYYYLLLLLGY.,qkkkkk0*YYYYYY",
"LLLLLLYYYLLPPLLYYo,qkkky*YYYYYYY",
"YYYYLLPGPLPYYYYYYYo:qkk4*YYYYYYY",
"YYYPLLLLPLLIYYYYYYY<:we:YYYYYYYY",
"YYPLLYLLYPLLIYYYYYYY<:,<YYYYYYYY",
"YLLLYYLLYYPPPYYYYYYYY<:YYYYYYYYY",
"YLLYYYLLYYYPPYYYYYYYYYYYYYYYYYYY",
"YYYYYYLLYYYYYYYYYYYYYYYYYYYYYYYY",
"YYYYYYYYYYYYYYYYYYYYYYYYYYYYYYYY"
};
