/* XPM */
static char *insert_bezier[] = {
/* columns rows colors chars-per-pixel */
"32 32 79 1",
"  c black",
". c #2C6F00",
"X c #2A7101",
"o c #2E7001",
"O c #446400",
"+ c #456400",
"@ c #7B4A00",
"# c #048000",
"$ c #048300",
"% c #058200",
"& c #068100",
"* c #078100",
"= c #068300",
"- c #068301",
"; c #078200",
": c #078300",
"> c #078301",
", c #068302",
"< c #078202",
"1 c #058500",
"2 c #068400",
"3 c #078400",
"4 c #068402",
"5 c #068B01",
"6 c #088000",
"7 c #088300",
"8 c #088400",
"9 c #069201",
"0 c #108000",
"q c #05A201",
"w c #04B101",
"e c #04B201",
"r c #04B901",
"t c #239A01",
"y c #31B901",
"u c #03C101",
"i c #04C101",
"p c #03C801",
"a c #03C901",
"s c #02D101",
"d c #03D101",
"f c #02D801",
"g c #02D901",
"h c #01E001",
"j c #02E001",
"k c #01E701",
"l c #01E801",
"z c #01EF01",
"x c #01F001",
"c c #00F701",
"v c #01F701",
"b c #01F801",
"n c #00FF01",
"m c #10EF01",
"M c #30D101",
"N c #20E001",
"B c #50B101",
"V c #50B200",
"C c #7F8300",
"Z c #709301",
"A c #953B00",
"S c #B82900",
"D c #834500",
"F c #9F6400",
"G c #AF5400",
"H c #BF4500",
"J c #B05400",
"K c #CF3500",
"L c #EF0F00",
"P c #E01600",
"I c #EB1100",
"U c #FF0500",
"Y c #FF0600",
"T c #FF0700",
"R c #FF0800",
"E c #FF1000",
"W c #808300",
"Q c #808301",
"! c None",
/* pixels */
"!!!!!!!!!!!!!!!!!!!!!!!!!!!!!!!!",
"!!!!!!!!!!!!!!!!!!!!!!!!!!!!!!!!",
"!!!!!!!!!!!!!!!!!!!!!!!!!!!!!!!!",
"!!!!!!!!!!!!!!!!!!!!!!!!!!!!!!!!",
"!!!!!!--647---!!!!!!!!!!!!!!!!!!",
"!!!!0-5rznnkdq-6!!!!!!!!!!!!!!!!",
"!!!6-rbnnnnnnnd97!!!!!!!!!!!!!!!",
"!!6-unnnnnnnnnnz54!!!!!!!!!!!!!!",
"!!4rnnnnnnnnnnnng4!!!!!!!!!!!!!!",
"!69znnnnnnnnnnnnnq4!!!!!!!!!!!!!",
"!6ennnnnnnnnnnnnnd4!!!!!!!!!!!!!",
"!-jnnnnnnnnnnnnnnb50!!!!!!!!!!!!",
"!4bnnnnnnnnnnnnnnnq-!!!!!!!!!!!!",
"!4nnnnnnnnnnnnnnnnu-!!!!!!!!!!-4",
"!6nnnnnnnnnnnnnnnnc-X!!!!!!!!--!",
"!-bnnnnnnnnnnnnnnnnq-!!!!!!-6-!!",
"!-knnnNMnnnnnnnnnnnz54!!!-474!!!",
"!-annnQHnnnnnnnnnnnnj944-96-!!!!",
"!SKmnnQHnnnCFnnnnnnnnzgdg5-!!!!!",
"!TLKmnQHnnCTQnnnnnnnnnnp--!!!!!!",
"!!+PKmQHnCTQnnnnnnnnnzq46!!!!!!!",
"!!!oPGZGVTQnnnnnnnnnp57!!!!!!!!!",
"!!!-XtznnVnnnnnnnnf966!!!!!!!!!!",
"TTTTI+9wjFHHHHyde5-6!!!!!!!!!!!!",
"TTTTTTX1-@DDDA.4-0!!!!!!!!!!!!!!",
"!!!!TTRLTTE!!!!!!!!!!!!!!!!!!!!!",
"!!!RTTTTRTTE!!!!!!!!!!!!!!!!!!!!",
"!!RTT!TT!RTTE!!!!!!!!!!!!!!!!!!!",
"!TTT!!TT!!RTT!!!!!!!!!!!!!!!!!!!",
"!TT!!!TT!!!RR!!!!!!!!!!!!!!!!!!!",
"!!!!!!TT!!!!!!!!!!!!!!!!!!!!!!!!",
"!!!!!!!!!!!!!!!!!!!!!!!!!!!!!!!!"
};
