/* XPM */
static char *insert_bezier[] = {
/* columns rows colors chars-per-pixel */
"41 30 84 1",
"  c black",
". c #1A7A01",
"X c #227500",
"o c #2C7001",
"O c #446400",
"+ c #717C00",
"@ c #048000",
"# c #048300",
"$ c #058200",
"% c #058202",
"& c #068100",
"* c #068300",
"= c #068301",
"- c #078200",
"; c #078300",
": c #078301",
"> c #068302",
", c #078202",
"< c #078302",
"1 c #068400",
"2 c #078400",
"3 c #068402",
"4 c #068B01",
"5 c #088000",
"6 c #088200",
"7 c #088300",
"8 c #0A8300",
"9 c #088403",
"0 c #0B8500",
"q c #069201",
"w c #069301",
"e c #059A01",
"r c #069A01",
"t c #108000",
"y c #159201",
"u c #05A201",
"i c #04AA01",
"p c #05AA01",
"a c #04B101",
"s c #04B201",
"d c #04B901",
"f c #14A101",
"g c #03C101",
"h c #04C101",
"j c #03C801",
"k c #03C901",
"l c #02D101",
"z c #03D001",
"x c #03D101",
"c c #02D801",
"v c #02D901",
"b c #01E001",
"n c #02E001",
"m c #01E701",
"M c #01EF01",
"N c #01F001",
"B c #00F701",
"V c #01F701",
"C c #01F801",
"Z c #00FF01",
"A c #10E801",
"S c #10EF01",
"D c #30D101",
"F c #50B100",
"G c #50B200",
"H c #7F8300",
"J c #709301",
"K c #40C101",
"L c #993600",
"P c #B12E00",
"I c #B04D00",
"U c #BF4500",
"Y c #D11F00",
"T c #DE1700",
"R c #CF3500",
"E c #DF2600",
"W c #FF0400",
"Q c #FF0600",
"! c #FF0700",
"~ c #FF0800",
"^ c #FF1000",
"/ c #808300",
"( c #808301",
") c None",
/* pixels */
")))))))))::::::::.)))))))))))))))))))))))",
")))))))5:qjMZZMcs:3))))))))))))))))))))))",
"))))))94kZZZZZZZZMs35))))))))))))))))))))",
")))))9qmZZZZZZZZZZZg50)))))))))))))))))))",
"))))54MZZZZZZZZZZZZZd:)))))))))))))))))))",
")))):kZZZZZZZZZZZZZZB4#))))))))))))))))))",
")))5qZZZZZZZZZZZZZZZZg:))))))))))))))))))",
")))3xZZZZZZZZZZZZZZZZB4.)))))))))))))))))",
"))):MZZZZZZZZZZZZZZZZZs:)))))))))))))))))",
"))9eZZZZZZZZZZZZZZZZZZk3)))))))))))))))))",
"))3uZZZZZZZZZZZZZZZZZZM:)))))))))))))))5)",
")):aZZZZZZZZZZZZZZZZZZZq3)))))))))))))59)",
")).sZZZZZZZZZZZZZZZZZZZh5)))))))))))::3))",
")):aZZZZZZZZZZZZZZZZZZZB50))))))))53:3)))",
")):pZZZZZZZZZZZZZZZZZZZZp:))))))8::::))))",
")):qZZDFZZZZZZZZZZZZZZZZM43))):54s4:)))))",
"))):BZ(EZZZZZZZZZZZZZZZZZmq:3:4hnw9))))))",
")!!.cZ(EZZZHRSZZZZZZZZZZZZBcxnZx45)))))))",
")~!YfZ(EZZH!(ZZZZZZZZZZZZZZZZZd:5))))))))",
"))~!YA(EZH!(ZZZZZZZZZZZZZZZZMe#.)))))))))",
")))~!IJUK!(ZZZZZZZZZZZZZZZZk43)))))))))))",
"))))!ogZZKZZZZZZZZZZZZZZZnu3:))))))))))))",
"!!!!!L:gZUEEEEFZZZZZZZZMa:5))))))))))))))",
"!!!!!!::e+((HHDZZZZZZvi358)))))))))))))))",
"))))~!!WOPydcnnncxdp43.0)))))))))))))))))",
")))!!!!!~!TX33::33:58))))))))))))))))))))",
"))~!!)!!)~!!^))))))))))))))))))))))))))))",
")!!!))!!))~!!))))))))))))))))))))))))))))",
")!!)))!!)))~~))))))))))))))))))))))))))))",
"))))))!!)))))))))))))))))))))))))))))))))"
};
