/* XPM */
static char *insert_circle[] = {
/* columns rows colors chars-per-pixel */
"32 30 84 1",
"  c black",
". c #396A01",
"X c #3B6801",
"o c #347C01",
"O c #456401",
"+ c #4A6200",
"@ c #724D00",
"# c #048000",
"$ c #048300",
"% c #058200",
"& c #058202",
"* c #068000",
"= c #068100",
"- c #078100",
"; c #068300",
": c #068301",
"> c #078200",
", c #078300",
"< c #078301",
"1 c #078202",
"2 c #058500",
"3 c #068400",
"4 c #078400",
"5 c #068402",
"6 c #068B01",
"7 c #078B01",
"8 c #088000",
"9 c #088200",
"0 c #088300",
"q c #069201",
"w c #069301",
"e c #069B01",
"r c #108000",
"t c #05A201",
"y c #05A901",
"u c #05AA01",
"i c #04B101",
"p c #04B901",
"a c #258301",
"s c #03C101",
"d c #04C101",
"f c #03C801",
"g c #03C901",
"h c #02D101",
"j c #03D101",
"k c #02D801",
"l c #02D901",
"z c #03D901",
"x c #01E001",
"c c #02E001",
"v c #01E701",
"b c #01EF01",
"n c #01F001",
"m c #00F701",
"M c #01F701",
"N c #01F801",
"B c #00FF01",
"V c #10EF01",
"C c #1FE001",
"Z c #21C101",
"A c #2FD101",
"S c #20E001",
"D c #50B201",
"F c #708B00",
"G c #60A200",
"H c #60A201",
"J c #B32E00",
"K c #807400",
"L c #9F6400",
"P c #BF4500",
"I c #CF3500",
"U c #DF2600",
"Y c #EF0F00",
"T c #E01E00",
"R c red",
"E c #FF0400",
"W c #FF0500",
"Q c #FF0600",
"! c #FF0700",
"~ c #FF0800",
"^ c #FF0B00",
"/ c #FF1000",
"( c #808300",
") c None",
/* pixels */
")))))))))))))o<<<<<<<<o)))))))))",
")))))))))))<$tdcbBBmcdw$<)))))))",
")))))))))<<tcBBBBBBBBBBcq<<)))))",
"))))))))2<gBBBBBBBBBBBBBBd<o))))",
")))))))26vBBBBBBBBBBBBBBBBh<8)))",
"))))))8<zBBBBBBBBBBBBBBBBBBh2o))",
"))))))2dBBBBBBBBBBBBBBBBBBBBp2))",
")))))oqBBBBBBBBBBBBBBBBBBBBBm6$)",
")))))$hBBBBBBBBBBBBBBBBBBBBBBd8)",
"))))o6BBBBBBBBBBBBBBBBBBBBBBBm2r",
"))))<yBBBBBBBBBBBBBBBBBBBBBBBBt<",
"))))<gBBBBBBBBBBBBBBBBBBBBBBBBp<",
"))))2zBBBBBBBBBBBBBBBBBBBBBBBBh<",
"))))2cBBBBBBBBBBBBBBBBBBBBBBBBh<",
"))))8zBBBBBBBBBBBBBBBBBBBBBBBBh2",
"))))<hVHVBBBBBBBBBBBBBBBBBBBBBd<",
"))))<pAQCBBBBBBBBBBBBBBBBBBBBByo",
")~QQ4qV~CBBCPABBBBBBBBBBBBBBBBwo",
"))QQQ<ZQCBCUIVBBBBBBBBBBBBBBBz$)",
")))QQ+a~VAUIVBBBBBBBBBBBBBBBBt2)",
"))))QY.TAUIVBBBBBBBBBBBBBBBBh<))",
")))))~8wNDVBBBBBBBBBBBBBBBBnq<))",
"QQQ~~Q)4eFUUUULBBBBBBBBBBBnq<)))",
"QQQQQQ))8OK(((HBBBBBBBBBBnq<))))",
"))))~Q/Q/JohBBBBBBBBBBBBg62)))))",
")))~~Q~Q~QY.qhnBBBBBBNdq$o))))))",
"))~Q~/~~~)QQ@2<eyiiyq284))))))))",
")RQ~/)~~~))QQ~)2<<<<8)))))))))))",
"))Q/))~Q~)))~)))))))))))))))))))",
"))))))~~~)))))))))))))))))))))))"
};
