/* XPM */
static char *f6d787a5a03c4938d8b1277895eec5d29HIo5LMoze6Nzx7Q[] = {
/* columns rows colors chars-per-pixel */
"32 22 49 1 ",
"  c None",
". c #745E29",
"X c #5D6928",
"o c #697E6E",
"O c #747E7A",
"+ c #DF1700",
"@ c #FF0700",
"# c #DF2600",
"$ c #008700",
"% c #008800",
"& c #008900",
"* c #008F00",
"= c #088708",
"- c #098709",
"; c #088F08",
": c #009700",
"> c #108611",
", c #108512",
"< c #118613",
"1 c #1D861E",
"2 c #00A500",
"3 c #00AC00",
"4 c #00B300",
"5 c #00BB00",
"6 c #30AA00",
"7 c #208322",
"8 c #218522",
"9 c #709000",
"0 c #00C200",
"q c #00C900",
"w c #00CA00",
"e c #00D000",
"r c #00D800",
"t c #00DF00",
"y c #30C000",
"u c #30CE00",
"i c #00E600",
"p c #00E700",
"a c #00ED00",
"s c #00EE00",
"d c #00F500",
"f c #00FC00",
"g c #428245",
"h c #428246",
"j c #46824A",
"k c #4D8150",
"l c #518155",
"z c #57805C",
"x c #58805C",
/* pixels */
"                $               ",
"            &*2503:&            ",
"          &:qdffffft4&          ",
"         *qffffffffffr:         ",
"       &2affffffffffffa3&       ",
"      $5ffffffffffffffff5&      ",
"     &qffffffffffffffffff0&     ",
"   &2pffffffffffffffffffffa:&   ",
"&$:effffffffffffffffffffffffe:$&",
"$$:effffffffffffffffffffffffe:$$",
"   &:affffffffffffffffffffp2&   ",
"    7>0@fffffffffffffffffq-,    ",
"      -@ffu9ffffffffffff5>      ",
"    @  @3y#uffffffffffa21       ",
"     @ @X+6ffffffffffq*h        ",
"         .>4tfffffdq:8x         ",
"  @@@@   @@@@:3052;8x           ",
"             olhjkO             ",
"     @ @ @                      ",
"    @  @  @                     ",
"       @                        ",
"       @                        "
};
