/* XPM */
static char *insert_polygon[] = {
/* columns rows colors chars-per-pixel */
"36 31 67 1",
"  c black",
". c #357301",
"X c #704D00",
"o c #7B4A00",
"O c #636401",
"+ c #7F7B00",
"@ c #048000",
"# c #058000",
"$ c #058200",
"% c #068100",
"& c #068300",
"* c #068301",
"= c #078301",
"- c #068302",
"; c #078202",
": c #068400",
"> c #068402",
", c #068B01",
"< c #078B01",
"1 c #088000",
"2 c #088200",
"3 c #088302",
"4 c #088400",
"5 c #098400",
"6 c #069201",
"7 c #069301",
"8 c #059A01",
"9 c #108000",
"0 c #05A201",
"q c #04B101",
"w c #04B201",
"e c #03BA01",
"r c #04B901",
"t c #04C101",
"y c #02D101",
"u c #03D101",
"i c #02D801",
"p c #01E001",
"a c #02E001",
"s c #01E701",
"d c #01E801",
"f c #01EF01",
"g c #01F001",
"h c #01F701",
"j c #00FF01",
"k c #7F8300",
"l c #60A201",
"z c #40C101",
"x c #923D00",
"c c #923E01",
"v c #A23500",
"b c #AC3000",
"n c #BF2400",
"m c #9F6400",
"M c #BF4500",
"N c #A06400",
"B c #CA2100",
"V c #C03D00",
"C c #EF0E00",
"Z c red",
"A c #FF0500",
"S c #FF0600",
"D c #FF0700",
"F c #FF0800",
"G c #FF0A00",
"H c #FF1000",
"J c None",
/* pixels */
"JJJJJJJJJJJJJJJJJJJJJ===JJJJJJJJJJJJ",
"JJJJJJJJJJJJJJJJJ==>=6q,>JJJJJJJJJJJ",
"JJJJJJJJJJJJ9==>=8rufjjs,2JJJJJJJJJJ",
"JJJJJJJJJJJ=,0rihjjjjjjjs,2JJJJJJJJJ",
"JJJJJJJJJJ1=fjjjjjjjjjjjjd<2JJJJJJJJ",
"JJJJJJJJJJ=qjjjjjjjjjjjjjjd,2JJJJJJJ",
"JJJJJJJJJJ=fjjjjjjjjjjjjjjjd<4JJJJJJ",
"JJJJJJJJJ=wjjjjjjjjjjjjjjjjjd<2JJJJJ",
"JJJJJJJJJ=ijjjjjjjjjjjjjjjjjjs,2JJJJ",
"JJJJJJJJ=0jjjjjjjjjjjjjjjjjjjjd<2JJJ",
"JJJJJJJJ=ujjjjjjjjjjjjjjjjjjjjjs,2JJ",
"JJJJJJJ16jjjjjjjjjjjjjjjjjjjjjjjs,>J",
"JJJJJJJ=ujjjjjjjjjjjjjjjjjjjjjjjjd,=",
"JJJJJJ16jjjjjjjjjjjjjjjjjjjjjjjjji=J",
"JJJJJJ>ujjjjjjjjjjjjjjjjjjjjjjjjj61J",
"JJJJJ16fjjjjjjjjjjjjjjjjjjjjjjjjt>JJ",
"JJJJJ>rzzjjjjjjjjjjjjjjjjjjjjjjg,=JJ",
"JJJJ11gmMjjjjjjjjjjjjjjjjjjjjjjw=JJJ",
"JJDD2wjmMjjjkmjjjjjjjjjjjjjjjji1JJJJ",
"JJDDvgjmMjjkDljjjjjjjjjjjjjjjj71JJJJ",
"JJJXCmjmVi+GOq086djjjjjjjjjjjt>JJJJJ",
"JJJ=.CxxBoGb===.2,djjjjjjjjjg,1JJJJJ",
"JJ1==nDJJAGJJJJJJ1<djjjjjjjjw=JJJJJJ",
"DDDDDDGJJJDGDDDDJJ2<djjjjjji=JJJJJJJ",
"AADDDDGJJJDDDDDDJJJ2,fjjjjj61JJJJJJJ",
"JJJJJDGGAADJJJJJJJJJ14djjje=JJJJJJJJ",
"JJJJDDGDDDADJJJJJJJJJ1<djf,=JJJJJJJJ",
"JJJGDDJDDJADDJJJJJJJJJ2<dw=JJJJJJJJJ",
"JJDDGJJDDJJDDDJJJJJJJJJ2>>JJJJJJJJJJ",
"JJGDJJJDDJJJDDJJJJJJJJJJ12JJJJJJJJJJ",
"JJJJJJJDDJJJJJJJJJJJJJJJJJJJJJJJJJJJ"
};
