/* XPM */
static char *insert_circle[] = {
/* columns rows colors chars-per-pixel */
"32 32 65 1",
"  c black",
". c #5A5500",
"X c #645500",
"o c #635C00",
"O c #636400",
"+ c #627C00",
"@ c #008000",
"# c #058200",
"$ c #068100",
"% c #068300",
"& c #068301",
"* c #078200",
"= c #078300",
"- c #078301",
"; c #068302",
": c #078302",
"> c #068400",
", c #078400",
"< c #068402",
"1 c #068B01",
"2 c #088000",
"3 c #088100",
"4 c #088300",
"5 c #088302",
"6 c #098400",
"7 c #069201",
"8 c #108000",
"9 c #04B101",
"0 c #04B201",
"q c #04B901",
"w c #03C101",
"e c #04C101",
"r c #02D801",
"t c #02D901",
"y c #01E001",
"u c #02E001",
"i c #01EF01",
"p c #01F001",
"a c #00F701",
"s c #01F701",
"d c #01F801",
"f c #00FF01",
"g c #11E001",
"h c #10EF01",
"j c #21D101",
"k c #20E001",
"l c #708301",
"z c #60A200",
"x c #60A201",
"c c #A13D00",
"v c #AD3000",
"b c #834500",
"n c #9F6400",
"m c #BF4500",
"M c #C12600",
"N c #CF3500",
"B c #DF2600",
"V c red",
"C c #FF0400",
"Z c #FF0500",
"A c #FF0600",
"S c #FF0700",
"D c #FF0800",
"F c #FF1000",
"G c None",
/* pixels */
"GGGGGGGGGGGGGGGGGGGGGGGGGGGGGGGG",
"GGGGGGGGGGGGGGGGGGGGGGGGGGGGGGGG",
"GGGGGGGGGGGGGGGGGGGGGGGGGGGGGGGG",
"GGGGGGGGGGGG8;6;;6;;;2GGGGGGGGGG",
"GGGGGGGGGG2;1qriffiy07;2GGGGGGGG",
"GGGGGGGGG;1esfffffffffe2:GGGGGGG",
"GGGGGGGG27iffffffffffffi7;GGGGGG",
"GGGGGGG:7iffffffffffffffi7;GGGGG",
"GGGGGG2;iffffffffffffffffi12GGGG",
"GGGGGG;wffffffffffffffffffe:GGGG",
"GGGGG27fffffffffffffffffffs18GGG",
"GGGGG:0ffffffffffffffffffffq:GGG",
"GGGGG:yffffffffffffffffffffr:GGG",
"GGGGG:iffffffffffffffffffffi:GGG",
"GGGGG:ffffffffffffffffffffff:GGG",
"GGGGG:ffffffffffffffffffffff:GGG",
"GGGGG:jzfffffffffffffffffffi:GGG",
"GGGGG:+Sfffffffffffffffffffy:GGG",
"GSSFG2oSfffkmkfffffffffffff0:GGG",
"GSSSF@XSffkBNhfffffffffffff72GGG",
"GGDSSFbSfkBNhfffffffffffffe;GGGG",
"GGGDSSSSgBNhfffffffffffffi;2GGGG",
"GGGGSDG67lhfffffffffffffi7;GGGGG",
"SSSSSSGG2Onnnnzffffffffi7;GGGGGG",
"SSSSSSGGGMvcnnzffffffdw16GGGGGGG",
"GGGGSSGGGS.:79yiffirq1;2GGGGGGGG",
"GGGDDDSSVSSF:;;;::;628GGGGGGGGGG",
"GGDSSFVSGDSSDGGGGGGGGGGGGGGGGGGG",
"GSSSFGSSGGDSSFGGGGGGGGGGGGGGGGGG",
"GSSFGGSSGGGDSDGGGGGGGGGGGGGGGGGG",
"GGGGGGVDGGGGGGGGGGGGGGGGGGGGGGGG",
"GGGGGGSSGGGGGGGGGGGGGGGGGGGGGGGG"
};
