<?xml version="1.0" encoding="UTF-8" standalone="no"?>
<!DOCTYPE svg PUBLIC "-//W3C//DTD SVG 1.1//EN" "http://www.w3.org/Graphics/SVG/1.1/DTD/svg11.dtd">
<svg xmlns:dc="http://purl.org/dc/elements/1.1/" xmlns="http://www.w3.org/2000/svg" version="1.1" xmlns:xl="http://www.w3.org/1999/xlink" viewBox="-1176 1449 2477 1890" width="1238.5" height="945">
  <defs/>
  <g id="Lienzo_5" fill-opacity="1" stroke-opacity="1" stroke="none" fill="none" stroke-dasharray="none">
    <title>Lienzo 5</title>
    <rect fill="white" x="-1176" y="1449" width="2477" height="1890"/>
    <g id="Lienzo_5_Capa_1">
      <title>Capa 1</title>
      <g id="Graphic_8">
        <path d="M -975 1450 L -950 1500 L -775 1550 L -875 1700 L -1025 1600 L -950 1500 L -975 1450 L -1100 1575 L -1025 1800 L -775 1775 L -675 1500 Z" fill="#40ff40"/>
        <path d="M -975 1450 L -950 1500 L -775 1550 L -875 1700 L -1025 1600 L -950 1500 L -975 1450 L -1100 1575 L -1025 1800 L -775 1775 L -675 1500 Z" stroke="black" stroke-linecap="round" stroke-linejoin="round" stroke-width="2"/>
      </g>
      <g id="Graphic_9">
        <path d="M -375 1450 L -500 1575 L -425 1800 L -175 1775 L -75 1500 Z" fill="#40ff40"/>
        <path d="M -375 1450 L -500 1575 L -425 1800 L -175 1775 L -75 1500 Z" stroke="black" stroke-linecap="round" stroke-linejoin="round" stroke-width="2"/>
      </g>
      <g id="Graphic_10">
        <path d="M -375 1500 L -450 1600 L -300 1700 L -200 1550 Z" fill="white"/>
        <path d="M -375 1500 L -450 1600 L -300 1700 L -200 1550 Z" stroke="black" stroke-linecap="round" stroke-linejoin="round" stroke-width="2"/>
      </g>
      <g id="Graphic_11">
        <path d="M 325 1450 L 200 1575 L 275 1800 L 525 1775 L 625 1500 Z" fill="#40ff40"/>
        <path d="M 325 1450 L 200 1575 L 275 1800 L 525 1775 L 625 1500 Z" stroke="black" stroke-linecap="round" stroke-linejoin="round" stroke-width="2"/>
      </g>
      <g id="Graphic_13">
        <path d="M 925 1450 L 1225 1500 L 1125 1775 L 875 1800 L 800 1575 L 1e3 1700 L 1100 1550 Z" fill="#40ff40"/>
        <path d="M 925 1450 L 1225 1500 L 1125 1775 L 875 1800 L 800 1575 L 1e3 1700 L 1100 1550 Z" stroke="black" stroke-linecap="round" stroke-linejoin="round" stroke-width="2"/>
      </g>
      <g id="Graphic_14">
        <path d="M -975 1950 L -1100 2075 L -1025 2300 L -775 2275 L -675 2e3 Z" fill="#40ff40"/>
        <path d="M -975 1950 L -1100 2075 L -1025 2300 L -775 2275 L -675 2e3 Z" stroke="black" stroke-linecap="round" stroke-linejoin="round" stroke-width="2"/>
      </g>
      <g id="Graphic_15">
        <path d="M -975 1950 L -1100 2075 L -1175 2025 L -975 1875 Z" stroke="black" stroke-linecap="round" stroke-linejoin="round" stroke-width="2"/>
      </g>
      <g id="Graphic_16">
        <path d="M 325 1450 L 200 1575 L 400 1700 L 500 1550 Z" fill="white"/>
        <path d="M 325 1450 L 200 1575 L 400 1700 L 500 1550 Z" stroke="black" stroke-linecap="round" stroke-linejoin="round" stroke-width="2"/>
      </g>
      <g id="Graphic_12">
        <path d="M -975 1950 L -1100 2075 L -1025 2125 L -975 2075 Z" fill="white"/>
        <path d="M -975 1950 L -1100 2075 L -1025 2125 L -975 2075 Z" stroke="black" stroke-linecap="round" stroke-linejoin="round" stroke-width="2"/>
      </g>
      <g id="Graphic_17">
        <path d="M -375 1950 L -500 2075 L -425 2300 L -175 2275 L -75 2e3 Z" fill="#40ff40"/>
        <path d="M -375 1950 L -500 2075 L -425 2300 L -175 2275 L -75 2e3 Z" stroke="black" stroke-linecap="round" stroke-linejoin="round" stroke-width="2"/>
      </g>
      <g id="Graphic_18">
        <path d="M -375 1950 L -500 2075 L -575 2025 L -375 1875 Z" fill="#40ff40"/>
        <path d="M -375 1950 L -500 2075 L -575 2025 L -375 1875 Z" stroke="black" stroke-linecap="round" stroke-linejoin="round" stroke-width="2"/>
      </g>
      <g id="Graphic_19">
        <path d="M -375 1950 L -500 2075 L -425 2125 L -375 2075 Z" fill="white"/>
        <path d="M -375 1950 L -500 2075 L -425 2125 L -375 2075 Z" stroke="black" stroke-linecap="round" stroke-linejoin="round" stroke-width="2"/>
      </g>
      <g id="Graphic_20">
        <path d="M -975 2450 L -1100 2575 L -1025 2800 L -775 2775 L -675 2500 Z" fill="#40ff40"/>
        <path d="M -975 2450 L -1100 2575 L -1025 2800 L -775 2775 L -675 2500 Z" stroke="black" stroke-linecap="round" stroke-linejoin="round" stroke-width="2"/>
      </g>
      <g id="Graphic_21">
        <path d="M -975 2500 L -1050 2600 L -900 2700 L -800 2550 Z" fill="#40ff40"/>
        <path d="M -975 2500 L -1050 2600 L -900 2700 L -800 2550 Z" stroke="black" stroke-linecap="round" stroke-linejoin="round" stroke-width="2"/>
      </g>
      <g id="Graphic_22">
        <path d="M -375 2450 L -500 2575 L -425 2800 L -175 2775 L -75 2500 Z" fill="#40ff40"/>
        <path d="M -375 2450 L -500 2575 L -425 2800 L -175 2775 L -75 2500 Z" stroke="black" stroke-linecap="round" stroke-linejoin="round" stroke-width="2"/>
      </g>
      <g id="Graphic_23">
        <path d="M -375 2500 L -450 2600 L -300 2700 L -200 2550 Z" fill="white"/>
        <path d="M -375 2500 L -450 2600 L -300 2700 L -200 2550 Z" stroke="black" stroke-linecap="round" stroke-linejoin="round" stroke-width="2"/>
      </g>
      <g id="Graphic_24">
        <path d="M 325 2450 L 200 2575 L 275 2800 L 525 2775 L 525 2500 Z" fill="#40ff40"/>
        <path d="M 325 2450 L 200 2575 L 275 2800 L 525 2775 L 525 2500 Z" stroke="black" stroke-linecap="round" stroke-linejoin="round" stroke-width="2"/>
      </g>
      <g id="Graphic_25">
        <path d="M 525 2625 L 525 2775 L 625 2700 L 625 2575 Z" fill="#40ff40"/>
        <path d="M 525 2625 L 525 2775 L 625 2700 L 625 2575 Z" stroke="black" stroke-linecap="round" stroke-linejoin="round" stroke-width="2"/>
      </g>
      <g id="Graphic_26">
        <path d="M 800 2575 L 875 2800 L 1125 2775 L 1225 2700 L 1225 2575 L 1125 2625 L 1125 2500 L 925 2450 Z" fill="#40ff40"/>
        <path d="M 800 2575 L 875 2800 L 1125 2775 L 1225 2700 L 1225 2575 L 1125 2625 L 1125 2500 L 925 2450 Z" stroke="black" stroke-linecap="round" stroke-linejoin="round" stroke-width="2"/>
      </g>
      <g id="Graphic_27">
        <path d="M -900 2950 L -1025 3075 L -950 3300 L -700 3275 L -600 3e3 Z" fill="#40ff40"/>
        <path d="M -900 2950 L -1025 3075 L -950 3300 L -700 3275 L -600 3e3 Z" stroke="black" stroke-linecap="round" stroke-linejoin="round" stroke-width="2"/>
      </g>
      <g id="Graphic_28">
        <path d="M -900 2950 L -1025 3075 L -1100 3025 L -900 2875 Z" fill="#40ff40"/>
        <path d="M -900 2950 L -1025 3075 L -1100 3025 L -900 2875 Z" stroke="black" stroke-linecap="round" stroke-linejoin="round" stroke-width="2"/>
      </g>
      <g id="Graphic_29">
        <path d="M -900 2950 L -1025 3075 L -950 3125 L -900 3075 Z" fill="#40ff40"/>
        <path d="M -900 2950 L -1025 3075 L -950 3125 L -900 3075 Z" stroke="black" stroke-linecap="round" stroke-linejoin="round" stroke-width="2"/>
      </g>
      <g id="Graphic_30">
        <path d="M -300 2950 L -425 3075 L -350 3300 L -100 3275 L 45474735e-20 3e3 Z" fill="#40ff40"/>
        <path d="M -300 2950 L -425 3075 L -350 3300 L -100 3275 L 45474735e-20 3e3 Z" stroke="black" stroke-linecap="round" stroke-linejoin="round" stroke-width="2"/>
      </g>
      <g id="Graphic_31">
        <path d="M -300 2950 L -425 3075 L -500 3025 L -300 2875 Z" fill="#40ff40"/>
        <path d="M -300 2950 L -425 3075 L -500 3025 L -300 2875 Z" stroke="black" stroke-linecap="round" stroke-linejoin="round" stroke-width="2"/>
      </g>
      <g id="Graphic_32">
        <path d="M -300 2950 L -425 3075 L -350 3125 L -300 3075 Z" fill="white"/>
        <path d="M -300 2950 L -425 3075 L -350 3125 L -300 3075 Z" stroke="black" stroke-linecap="round" stroke-linejoin="round" stroke-width="2"/>
      </g>
      <g id="Graphic_33">
        <path d="M 325 1950 L 625 2e3 L 525 2275 L 275 2300 L 200 2075 L 400 2200 L 500 2050 Z" fill="#40ff40"/>
        <path d="M 325 1950 L 625 2e3 L 525 2275 L 275 2300 L 200 2075 L 400 2200 L 500 2050 Z" stroke="black" stroke-linecap="round" stroke-linejoin="round" stroke-width="2"/>
      </g>
      <g id="Graphic_34">
        <path d="M 250 1950 L 225 2050 L 375 2125 L 425 2050 Z" fill="white"/>
        <path d="M 250 1950 L 225 2050 L 375 2125 L 425 2050 Z" stroke="black" stroke-linecap="round" stroke-linejoin="round" stroke-width="2"/>
      </g>
      <g id="Graphic_35">
        <path d="M 925 1950 L 1225 2e3 L 1125 2275 L 875 2300 L 800 2075 L 1e3 2200 L 1100 2050 Z" fill="#40ff40"/>
        <path d="M 925 1950 L 1225 2e3 L 1125 2275 L 875 2300 L 800 2075 L 1e3 2200 L 1100 2050 Z" stroke="black" stroke-linecap="round" stroke-linejoin="round" stroke-width="2"/>
      </g>
      <g id="Graphic_36">
        <path d="M 850 1950 L 825 2050 L 975 2125 L 1025 2050 Z" fill="#40ff40"/>
        <path d="M 850 1950 L 825 2050 L 975 2125 L 1025 2050 Z" stroke="black" stroke-linecap="round" stroke-linejoin="round" stroke-width="2"/>
      </g>
      <g id="Graphic_37">
        <path d="M 400 2950 L 275 3075 L 300 3300 L 700 2900 Z" fill="#40ff40"/>
        <path d="M 400 2950 L 275 3075 L 300 3300 L 700 2900 Z" stroke="black" stroke-linecap="round" stroke-linejoin="round" stroke-width="2"/>
      </g>
      <g id="Graphic_38">
        <path d="M 400 2950 L 275 3075 L 200 3025 L 325 2875 Z" fill="#40ff40"/>
        <path d="M 400 2950 L 275 3075 L 200 3025 L 325 2875 Z" stroke="black" stroke-linecap="round" stroke-linejoin="round" stroke-width="2"/>
      </g>
      <g id="Graphic_39">
        <path d="M 525 3075 L 425 3175 L 575 3275 L 675 3225 Z" fill="#40ff40"/>
        <path d="M 525 3075 L 425 3175 L 575 3275 L 675 3225 Z" stroke="black" stroke-linecap="round" stroke-linejoin="round" stroke-width="2"/>
      </g>
      <g id="Graphic_41">
        <path d="M 400 2950 L 275 3075 L 425 3175 L 525 3075 Z" fill="#40ff40"/>
        <path d="M 400 2950 L 275 3075 L 425 3175 L 525 3075 Z" stroke="black" stroke-linecap="round" stroke-linejoin="round" stroke-width="2"/>
      </g>
      <g id="Graphic_42">
        <path d="M 1e3 2950 L 875 3075 L 900 3300 L 1300 2900 Z" fill="#40ff40"/>
        <path d="M 1e3 2950 L 875 3075 L 900 3300 L 1300 2900 Z" stroke="black" stroke-linecap="round" stroke-linejoin="round" stroke-width="2"/>
      </g>
      <g id="Graphic_43">
        <path d="M 1e3 2950 L 875 3075 L 800 3025 L 925 2875 Z" fill="#40ff40"/>
        <path d="M 1e3 2950 L 875 3075 L 800 3025 L 925 2875 Z" stroke="black" stroke-linecap="round" stroke-linejoin="round" stroke-width="2"/>
      </g>
      <g id="Graphic_44">
        <path d="M 1125 3075 L 1025 3175 L 1175 3275 L 1275 3225 Z" fill="#40ff40"/>
        <path d="M 1125 3075 L 1025 3175 L 1175 3275 L 1275 3225 Z" stroke="black" stroke-linecap="round" stroke-linejoin="round" stroke-width="2"/>
      </g>
      <g id="Graphic_45">
        <path d="M 1e3 2950 L 875 3075 L 1025 3175 L 1125 3075 Z" fill="white"/>
        <path d="M 1e3 2950 L 875 3075 L 1025 3175 L 1125 3075 Z" stroke="black" stroke-linecap="round" stroke-linejoin="round" stroke-width="2"/>
      </g>
      <g id="Graphic_46">
        <text transform="translate(-595 1805)" fill="black">
          <tspan font-family="Helvetica" font-size="24" fill="black" x="0" y="23">(a)</tspan>
        </text>
      </g>
      <g id="Graphic_47">
        <text transform="translate(705 1805)" fill="black">
          <tspan font-family="Helvetica" font-size="24" fill="black" x="0" y="23">(b)</tspan>
        </text>
      </g>
      <g id="Graphic_48">
        <text transform="translate(-594.3262 2305)" fill="black">
          <tspan font-family="Helvetica" font-size="24" fill="black" x="0" y="23">(c)</tspan>
        </text>
      </g>
      <g id="Graphic_49">
        <text transform="translate(705 2305)" fill="black">
          <tspan font-family="Helvetica" font-size="24" fill="black" x="0" y="23">(d)</tspan>
        </text>
      </g>
      <g id="Graphic_50">
        <text transform="translate(-595.6738 2805)" fill="black">
          <tspan font-family="Helvetica" font-size="24" fill="black" x="0" y="23">(e)</tspan>
        </text>
      </g>
      <g id="Graphic_51">
        <text transform="translate(708.33984 2805)" fill="black">
          <tspan font-family="Helvetica" font-size="24" fill="black" x="0" y="23">(f)</tspan>
        </text>
      </g>
      <g id="Graphic_52">
        <text transform="translate(-598.33984 3305)" fill="black">
          <tspan font-family="Helvetica" font-size="24" fill="black" x="0" y="23">(g)</tspan>
        </text>
      </g>
      <g id="Graphic_53">
        <text transform="translate(705 3305)" fill="black">
          <tspan font-family="Helvetica" font-size="24" fill="black" x="0" y="23">(h)</tspan>
        </text>
      </g>
    </g>
  </g>
</svg>
