<?xml version="1.0" encoding="UTF-8" standalone="no"?>
<!DOCTYPE svg PUBLIC "-//W3C//DTD SVG 1.1//EN" "http://www.w3.org/Graphics/SVG/1.1/DTD/svg11.dtd">
<svg xmlns:dc="http://purl.org/dc/elements/1.1/" xmlns="http://www.w3.org/2000/svg" version="1.1" xmlns:xl="http://www.w3.org/1999/xlink" viewBox="-1155 962 1580.47 788" width="790.235" height="394">
  <defs/>
  <g id="Lienzo_4" fill-opacity="1" stroke-opacity="1" stroke="none" fill="none" stroke-dasharray="none">
    <title>Lienzo 4</title>
    <rect fill="white" x="-1155" y="962" width="1580.47" height="788"/>
    <g id="Lienzo_4_Capa_1">
      <title>Capa 1</title>
      <g id="Graphic_12">
        <path d="M -641.5 968.5 C -641 968.5 -717 1280 -717 1280 L -455 1194 L -672.872 1097.1071 L -395.5 963 C -395.5 963 -642 968.5 -641.5 968.5 Z" fill="#ff4040"/>
        <path d="M -641.5 968.5 C -641 968.5 -717 1280 -717 1280 L -455 1194 L -672.872 1097.1071 L -395.5 963 C -395.5 963 -642 968.5 -641.5 968.5 Z" stroke="black" stroke-linecap="round" stroke-linejoin="round" stroke-width="2"/>
      </g>
      <g id="Graphic_9">
        <path d="M -241.5 1388.5 C -241 1388.5 -317 1700 -317 1700 L -55 1614 L -127 1481 L 4.5 1383 C 4.5 1383 -242 1388.5 -241.5 1388.5 Z" fill="#ff4040"/>
        <path d="M -241.5 1388.5 C -241 1388.5 -317 1700 -317 1700 L -55 1614 L -127 1481 L 4.5 1383 C 4.5 1383 -242 1388.5 -241.5 1388.5 Z" stroke="black" stroke-linecap="round" stroke-linejoin="round" stroke-width="2"/>
      </g>
      <g id="Graphic_8">
        <path d="M -204 1483 L -244 1600 L -126.1 1480.6 Z" fill="white"/>
        <path d="M -204 1483 L -244 1600 L -126.1 1480.6 Z" stroke="black" stroke-linecap="round" stroke-linejoin="round" stroke-width="2"/>
      </g>
      <g id="Graphic_7">
        <path d="M 4.5 1426.2 L -109.5 1414 L -6.5 1602.2 Z" fill="#ff4040"/>
        <path d="M 4.5 1426.2 L -109.5 1414 L -6.5 1602.2 Z" stroke="black" stroke-linecap="round" stroke-linejoin="round" stroke-width="2"/>
      </g>
      <g id="Graphic_6">
        <text transform="translate(-590.416 1285)" fill="black">
          <tspan font-family="Helvetica" font-size="24" fill="black" x="0" y="23">(b)</tspan>
        </text>
      </g>
      <g id="Graphic_5">
        <text transform="translate(-1009.916 1275)" fill="black">
          <tspan font-family="Helvetica" font-size="24" fill="black" x="0" y="23">(a)</tspan>
        </text>
      </g>
      <g id="Graphic_4">
        <text transform="translate(-170.24219 1275)" fill="black">
          <tspan font-family="Helvetica" font-size="24" fill="black" x="0" y="23">(c)</tspan>
        </text>
      </g>
      <g id="Graphic_3">
        <text transform="translate(-587.0762 1716)" fill="black">
          <tspan font-family="Helvetica" font-size="24" fill="black" x="0" y="23">(f)</tspan>
        </text>
      </g>
      <g id="Graphic_2">
        <text transform="translate(-171.58984 1716)" fill="black">
          <tspan font-family="Helvetica" font-size="24" fill="black" x="0" y="23">(g)</tspan>
        </text>
      </g>
      <g id="Graphic_22">
        <path d="M -1080.5 968.5 C -1080 968.5 -894 1194 -894 1194 L -1154 1280.5 L -834.5 963 C -834.5 963 -1081 968.5 -1080.5 968.5 Z" fill="#ff4040"/>
        <path d="M -1080.5 968.5 C -1080 968.5 -894 1194 -894 1194 L -1154 1280.5 L -834.5 963 C -834.5 963 -1081 968.5 -1080.5 968.5 Z" stroke="black" stroke-linecap="round" stroke-linejoin="round" stroke-width="2"/>
      </g>
      <g id="Graphic_23">
        <path d="M 178 968.5 C 178.5 968.5 102.5 1280 102.5 1280 L 364.5 1194 L 292.5 1061 L 424 963 C 424 963 177.5 968.5 178 968.5 Z" fill="#ff4040"/>
        <path d="M 178 968.5 C 178.5 968.5 102.5 1280 102.5 1280 L 364.5 1194 L 292.5 1061 L 424 963 C 424 963 177.5 968.5 178 968.5 Z" stroke="black" stroke-linecap="round" stroke-linejoin="round" stroke-width="2"/>
      </g>
      <g id="Graphic_24">
        <path d="M 215.5 1064.2 L 288 1177 L 341 1004 Z" fill="white"/>
        <path d="M 215.5 1064.2 L 288 1177 L 341 1004 Z" stroke="black" stroke-linecap="round" stroke-linejoin="round" stroke-width="2"/>
      </g>
      <g id="Graphic_25">
        <text transform="translate(248.58398 1275)" fill="black">
          <tspan font-family="Helvetica" font-size="24" fill="black" x="0" y="23">(d)</tspan>
        </text>
      </g>
      <g id="Graphic_26">
        <path d="M -242.17383 968.5 C -241.67383 968.5 -317.67383 1280 -317.67383 1280 L -55.67383 1194 L -127.67383 1061 L 3.826172 963 C 3.826172 963 -242.67383 968.5 -242.17383 968.5 Z" fill="#ff4040"/>
        <path d="M -242.17383 968.5 C -241.67383 968.5 -317.67383 1280 -317.67383 1280 L -55.67383 1194 L -127.67383 1061 L 3.826172 963 C 3.826172 963 -242.67383 968.5 -242.17383 968.5 Z" stroke="black" stroke-linecap="round" stroke-linejoin="round" stroke-width="2"/>
      </g>
      <g id="Graphic_27">
        <path d="M -5.173828 1004 L -82.17383 1064 L -16.173828 1180 Z" fill="white"/>
        <path d="M -5.173828 1004 L -82.17383 1064 L -16.173828 1180 Z" stroke="black" stroke-linecap="round" stroke-linejoin="round" stroke-width="2"/>
      </g>
      <g id="Graphic_28">
        <path d="M -1063.5 1383.5 C -1063 1383.5 -1139 1695 -1139 1695 L -877 1609 L -949 1476 L -817.5 1378 C -817.5 1378 -1064 1383.5 -1063.5 1383.5 Z" fill="#ff4040"/>
        <path d="M -1063.5 1383.5 C -1063 1383.5 -1139 1695 -1139 1695 L -877 1609 L -949 1476 L -817.5 1378 C -817.5 1378 -1064 1383.5 -1063.5 1383.5 Z" stroke="black" stroke-linecap="round" stroke-linejoin="round" stroke-width="2"/>
      </g>
      <g id="Graphic_29">
        <text transform="translate(-1008.916 1716)" fill="black">
          <tspan font-family="Helvetica" font-size="24" fill="black" x="0" y="23">(e)</tspan>
        </text>
      </g>
      <g id="Graphic_31">
        <path d="M -641.5 1382.3024 C -641 1382.3024 -717 1693.8024 -717 1693.8024 L -455 1607.8024 L -527 1474.8024 L -395.5 1376.8024 C -395.5 1376.8024 -642 1382.3024 -641.5 1382.3024 Z" fill="#ff4040"/>
        <path d="M -641.5 1382.3024 C -641 1382.3024 -717 1693.8024 -717 1693.8024 L -455 1607.8024 L -527 1474.8024 L -395.5 1376.8024 C -395.5 1376.8024 -642 1382.3024 -641.5 1382.3024 Z" stroke="black" stroke-linecap="round" stroke-linejoin="round" stroke-width="2"/>
      </g>
      <g id="Graphic_32">
        <path d="M -666.6 1488.2 L -643.2024 1595.0024 L -527 1475.2 Z" fill="white"/>
        <path d="M -666.6 1488.2 L -643.2024 1595.0024 L -527 1475.2 Z" stroke="black" stroke-linecap="round" stroke-linejoin="round" stroke-width="2"/>
      </g>
      <g id="Graphic_33">
        <path d="M -1026.921 1479.2 L -877.2 1608.2 L -949.021 1476.8 Z" fill="white"/>
        <path d="M -1026.921 1479.2 L -877.2 1608.2 L -949.021 1476.8 Z" stroke="black" stroke-linecap="round" stroke-linejoin="round" stroke-width="2"/>
      </g>
      <g id="Graphic_34">
        <path d="M -241.5 1388.5 C -241 1388.5 -317 1700 -317 1700 L -55 1614 L -127 1481 L 4.5 1383 C 4.5 1383 -242 1388.5 -241.5 1388.5 Z" stroke="black" stroke-linecap="round" stroke-linejoin="round" stroke-width="2"/>
      </g>
      <g id="Graphic_35">
        <path d="M 178 1388.5 C 178.5 1388.5 102.5 1700 102.5 1700 L 364.5 1614 L 292.5 1481 L 424 1383 C 424 1383 177.5 1388.5 178 1388.5 Z" fill="#ff4040"/>
        <path d="M 178 1388.5 C 178.5 1388.5 102.5 1700 102.5 1700 L 364.5 1614 L 292.5 1481 L 424 1383 C 424 1383 177.5 1388.5 178 1388.5 Z" stroke="black" stroke-linecap="round" stroke-linejoin="round" stroke-width="2"/>
      </g>
      <g id="Graphic_36">
        <path d="M 215.5 1483 L 175.5 1600 L 293.4 1480.6 Z" fill="white"/>
        <path d="M 215.5 1483 L 175.5 1600 L 293.4 1480.6 Z" stroke="black" stroke-linecap="round" stroke-linejoin="round" stroke-width="2"/>
      </g>
      <g id="Graphic_37">
        <path d="M 423.8 1383.2 L 293.2 1480.6 L 413 1602.2 Z" fill="#ff4040"/>
        <path d="M 423.8 1383.2 L 293.2 1480.6 L 413 1602.2 Z" stroke="black" stroke-linecap="round" stroke-linejoin="round" stroke-width="2"/>
      </g>
      <g id="Graphic_38">
        <text transform="translate(247.91016 1716)" fill="black">
          <tspan font-family="Helvetica" font-size="24" fill="black" x="0" y="23">(h)</tspan>
        </text>
      </g>
      <g id="Graphic_40">
        <path d="M 178.47 968.97 C 178.97 968.97 102.97 1280.47 102.97 1280.47 L 364.97 1194.47 L 292.97 1061.47 L 424.47 963.47 C 424.47 963.47 177.97 968.97 178.47 968.97 Z" stroke="black" stroke-linecap="round" stroke-linejoin="round" stroke-width="2"/>
      </g>
    </g>
  </g>
</svg>
