<?xml version="1.0" encoding="UTF-8" standalone="no"?>
<!DOCTYPE svg PUBLIC "-//W3C//DTD SVG 1.1//EN" "http://www.w3.org/Graphics/SVG/1.1/DTD/svg11.dtd">
<svg xmlns:dc="http://purl.org/dc/elements/1.1/" xmlns="http://www.w3.org/2000/svg" version="1.1" xmlns:xl="http://www.w3.org/1999/xlink" viewBox="-726 1033 1162.5 806" width="1162.5" height="806">
  <defs/>
  <g id="Lienzo_3" fill-opacity="1" stroke-opacity="1" stroke="none" fill="none" stroke-dasharray="none">
    <title>Lienzo 3</title>
    <rect fill="white" x="-726" y="1033" width="1162.5" height="806"/>
    <g id="Lienzo_3_Capa_1">
      <title>Capa 1</title>
      <g id="Graphic_3">
        <path d="M -649.5 1039.5 C -649 1039.5 -725 1351 -725 1351 L -463 1265 L -535 1132 L -403.5 1034 C -403.5 1034 -650 1039.5 -649.5 1039.5 Z" fill="yellow"/>
        <path d="M -649.5 1039.5 C -649 1039.5 -725 1351 -725 1351 L -463 1265 L -535 1132 L -403.5 1034 C -403.5 1034 -650 1039.5 -649.5 1039.5 Z" stroke="black" stroke-linecap="round" stroke-linejoin="round" stroke-width="2"/>
      </g>
      <g id="Graphic_5">
        <path d="M -230 1039.5 C -229.5 1039.5 -305.5 1351 -305.5 1351 L -43.5 1265 L -115.5 1132 L 16 1034 C 16 1034 -230.5 1039.5 -230 1039.5 Z" fill="yellow"/>
        <path d="M -230 1039.5 C -229.5 1039.5 -305.5 1351 -305.5 1351 L -43.5 1265 L -115.5 1132 L 16 1034 C 16 1034 -230.5 1039.5 -230 1039.5 Z" stroke="black" stroke-linecap="round" stroke-linejoin="round" stroke-width="2"/>
      </g>
      <g id="Graphic_7">
        <path d="M -192.5 1134 L -232.5 1251 L -139 1201 Z" fill="white"/>
        <path d="M -192.5 1134 L -232.5 1251 L -139 1201 Z" stroke="black" stroke-linecap="round" stroke-linejoin="round" stroke-width="2"/>
      </g>
      <g id="Graphic_8">
        <path d="M 189.5 1039.5 C 190 1039.5 114 1351 114 1351 L 376 1265 L 304 1132 L 435.5 1034 C 435.5 1034 189 1039.5 189.5 1039.5 Z" fill="yellow"/>
        <path d="M 189.5 1039.5 C 190 1039.5 114 1351 114 1351 L 376 1265 L 304 1132 L 435.5 1034 C 435.5 1034 189 1039.5 189.5 1039.5 Z" stroke="black" stroke-linecap="round" stroke-linejoin="round" stroke-width="2"/>
      </g>
      <g id="Graphic_9">
        <path d="M 227 1134 L 187 1251 L 304.9 1131.6 Z" fill="white"/>
        <path d="M 227 1134 L 187 1251 L 304.9 1131.6 Z" stroke="black" stroke-linecap="round" stroke-linejoin="round" stroke-width="2"/>
      </g>
      <g id="Graphic_10">
        <path d="M -230 1477.5 C -229.5 1477.5 -305.5 1789 -305.5 1789 L -43.5 1703 L -115.5 1570 L 16 1472 C 16 1472 -230.5 1477.5 -230 1477.5 Z" fill="yellow"/>
        <path d="M -230 1477.5 C -229.5 1477.5 -305.5 1789 -305.5 1789 L -43.5 1703 L -115.5 1570 L 16 1472 C 16 1472 -230.5 1477.5 -230 1477.5 Z" stroke="black" stroke-linecap="round" stroke-linejoin="round" stroke-width="2"/>
      </g>
      <g id="Graphic_11">
        <path d="M -192.5 1572 L -232.5 1689 L -139 1639 Z" fill="white"/>
        <path d="M -192.5 1572 L -232.5 1689 L -139 1639 Z" stroke="black" stroke-linecap="round" stroke-linejoin="round" stroke-width="2"/>
      </g>
      <g id="Graphic_12">
        <path d="M 10 1515.2 L -67 1575.2 L -1 1691.2 Z" fill="yellow"/>
        <path d="M 10 1515.2 L -67 1575.2 L -1 1691.2 Z" stroke="black" stroke-linecap="round" stroke-linejoin="round" stroke-width="2"/>
      </g>
      <g id="Graphic_13">
        <path d="M 189.5 1477.5 C 190 1477.5 114 1789 114 1789 L 376 1703 L 304 1570 L 435.5 1472 C 435.5 1472 189 1477.5 189.5 1477.5 Z" fill="yellow"/>
        <path d="M 189.5 1477.5 C 190 1477.5 114 1789 114 1789 L 376 1703 L 304 1570 L 435.5 1472 C 435.5 1472 189 1477.5 189.5 1477.5 Z" stroke="black" stroke-linecap="round" stroke-linejoin="round" stroke-width="2"/>
      </g>
      <g id="Graphic_14">
        <path d="M 227 1572 L 187 1689 L 304.9 1569.6 Z" fill="white"/>
        <path d="M 227 1572 L 187 1689 L 304.9 1569.6 Z" stroke="black" stroke-linecap="round" stroke-linejoin="round" stroke-width="2"/>
      </g>
      <g id="Graphic_15">
        <path d="M 435.5 1515.2 L 304.8 1569.8 L 424.5 1691.2 Z" fill="yellow"/>
        <path d="M 435.5 1515.2 L 304.8 1569.8 L 424.5 1691.2 Z" stroke="black" stroke-linecap="round" stroke-linejoin="round" stroke-width="2"/>
      </g>
      <g id="Graphic_17">
        <text transform="translate(-159.41602 1364)" fill="black">
          <tspan font-family="Helvetica" font-size="24" fill="black" x="0" y="23">(b)</tspan>
        </text>
      </g>
      <g id="Graphic_16">
        <text transform="translate(-578.916 1364)" fill="black">
          <tspan font-family="Helvetica" font-size="24" fill="black" x="0" y="23">(a)</tspan>
        </text>
      </g>
      <g id="Graphic_18">
        <text transform="translate(260.7578 1364)" fill="black">
          <tspan font-family="Helvetica" font-size="24" fill="black" x="0" y="23">(c)</tspan>
        </text>
      </g>
      <g id="Graphic_19">
        <text transform="translate(-159.41602 1805)" fill="black">
          <tspan font-family="Helvetica" font-size="24" fill="black" x="0" y="23">(d)</tspan>
        </text>
      </g>
      <g id="Graphic_20">
        <text transform="translate(259.41016 1805)" fill="black">
          <tspan font-family="Helvetica" font-size="24" fill="black" x="0" y="23">(e)</tspan>
        </text>
      </g>
    </g>
  </g>
</svg>
